<svg width="118" height="25" viewBox="0 0 118 25" fill="none" xmlns="http://www.w3.org/2000/svg">
<path d="M0 25V5.76923C0 4.23914 0.991923 2.77171 2.75756 1.68977C4.52319 0.607828 6.91791 0 9.41489 0L118 0V19.2308C118 20.7609 117.008 22.2283 115.242 23.3102C113.477 24.3922 111.082 25 108.585 25H0Z" fill="#262626"/>
<path d="M25.1318 19.8027H24.626C23.7464 19.8027 23.0924 19.5954 22.6641 19.1807C22.2357 18.7705 22.0215 18.1462 22.0215 17.3076V14.9561C22.0215 14.7327 21.9964 14.5345 21.9463 14.3613C21.8962 14.1836 21.8073 14.0355 21.6797 13.917C21.5566 13.7939 21.3903 13.7005 21.1807 13.6367C20.9756 13.5729 20.7158 13.541 20.4014 13.541H20.1074V12.5908H20.4014C20.734 12.5908 21.0052 12.5635 21.2148 12.5088C21.4245 12.4541 21.5885 12.3721 21.707 12.2627C21.8255 12.1488 21.9076 12.0052 21.9531 11.832C21.9987 11.6589 22.0215 11.4538 22.0215 11.2168V9.59668C22.0215 9.21387 22.0671 8.86979 22.1582 8.56445C22.2493 8.25456 22.3975 7.99251 22.6025 7.77832C22.8122 7.55957 23.0811 7.39323 23.4092 7.2793C23.7419 7.16081 24.1475 7.10156 24.626 7.10156H25.1318V8.05859H24.7285C23.6712 8.05859 23.1426 8.57129 23.1426 9.59668V11.1895C23.1426 12.3014 22.6618 12.9281 21.7002 13.0693C22.6709 13.165 23.1562 13.7894 23.1562 14.9424V17.2803C23.1562 18.3239 23.6803 18.8457 24.7285 18.8457H25.1318V19.8027ZM34.3262 17H33L32.3779 15.0518H28.6592L28.0303 17H26.7656L29.7324 8.06543H31.4004L34.3262 17ZM32.0293 13.9648L30.5186 9.18652L29.0078 13.9648H32.0293ZM37.8262 8.31836H35.7959V7.34082H39.0293V16.0088H41.0732V17H35.5703V16.0088H37.8262V8.31836ZM48.0801 17V12.0713C48.0801 11.8571 48.071 11.6816 48.0527 11.5449C48.0391 11.4082 48.014 11.3011 47.9775 11.2236C47.9456 11.1416 47.9023 11.0846 47.8477 11.0527C47.7975 11.0208 47.7337 11.0049 47.6562 11.0049C47.5651 11.0049 47.4808 11.0322 47.4033 11.0869C47.3258 11.1416 47.2415 11.2305 47.1504 11.3535C47.0638 11.4766 46.9658 11.6406 46.8564 11.8457C46.7516 12.0462 46.6263 12.2946 46.4805 12.5908V17H45.3936V12.2012C45.3936 11.9505 45.3844 11.7477 45.3662 11.5928C45.3525 11.4378 45.3275 11.3171 45.291 11.2305C45.2591 11.1439 45.2158 11.0846 45.1611 11.0527C45.1064 11.0208 45.0404 11.0049 44.9629 11.0049C44.8809 11.0049 44.8034 11.0277 44.7305 11.0732C44.6576 11.1188 44.5755 11.2008 44.4844 11.3193C44.3978 11.4378 44.2998 11.5996 44.1904 11.8047C44.0811 12.0098 43.9512 12.2718 43.8008 12.5908V17H42.707V10.1367H43.6162L43.6709 11.4424C43.7894 11.1826 43.9033 10.9616 44.0127 10.7793C44.1266 10.597 44.2428 10.4512 44.3613 10.3418C44.4798 10.2279 44.6051 10.1458 44.7373 10.0957C44.874 10.041 45.0244 10.0137 45.1885 10.0137C45.5576 10.0137 45.8379 10.1344 46.0293 10.376C46.2207 10.6175 46.3164 10.9912 46.3164 11.4971C46.4258 11.2601 46.5329 11.0505 46.6377 10.8682C46.7425 10.6813 46.8542 10.5264 46.9727 10.4033C47.0957 10.2757 47.2301 10.18 47.376 10.1162C47.5218 10.0479 47.6904 10.0137 47.8818 10.0137C48.7432 10.0137 49.1738 10.6768 49.1738 12.0029V17H48.0801Z" fill="#FFCE37"/>
<path d="M53.6377 10.0137C53.779 10.0137 53.9134 10.0433 54.041 10.1025C54.1686 10.1572 54.2803 10.2324 54.376 10.3281C54.4717 10.4238 54.5469 10.5355 54.6016 10.6631C54.6608 10.7907 54.6904 10.9251 54.6904 11.0664C54.6904 11.2122 54.6608 11.349 54.6016 11.4766C54.5469 11.5996 54.4717 11.709 54.376 11.8047C54.2803 11.9004 54.1686 11.9756 54.041 12.0303C53.9134 12.085 53.779 12.1123 53.6377 12.1123C53.4919 12.1123 53.3551 12.085 53.2275 12.0303C53.1045 11.9756 52.9951 11.9004 52.8994 11.8047C52.8037 11.709 52.7285 11.5996 52.6738 11.4766C52.6191 11.349 52.5918 11.2122 52.5918 11.0664C52.5918 10.9251 52.6191 10.7907 52.6738 10.6631C52.7285 10.5355 52.8037 10.4238 52.8994 10.3281C52.9951 10.2324 53.1045 10.1572 53.2275 10.1025C53.3551 10.0433 53.4919 10.0137 53.6377 10.0137ZM53.6377 15.0244C53.779 15.0244 53.9134 15.054 54.041 15.1133C54.1686 15.168 54.2803 15.2432 54.376 15.3389C54.4717 15.4346 54.5469 15.5462 54.6016 15.6738C54.6608 15.8014 54.6904 15.9359 54.6904 16.0771C54.6904 16.223 54.6608 16.3597 54.6016 16.4873C54.5469 16.6104 54.4717 16.7197 54.376 16.8154C54.2803 16.9111 54.1686 16.9863 54.041 17.041C53.9134 17.0957 53.779 17.123 53.6377 17.123C53.4919 17.123 53.3551 17.0957 53.2275 17.041C53.1045 16.9863 52.9951 16.9111 52.8994 16.8154C52.8037 16.7197 52.7285 16.6104 52.6738 16.4873C52.6191 16.3597 52.5918 16.223 52.5918 16.0771C52.5918 15.9359 52.6191 15.8014 52.6738 15.6738C52.7285 15.5462 52.8037 15.4346 52.8994 15.3389C52.9951 15.2432 53.1045 15.168 53.2275 15.1133C53.3551 15.054 53.4919 15.0244 53.6377 15.0244ZM61.335 10.0137C61.4762 10.0137 61.6107 10.0433 61.7383 10.1025C61.8659 10.1572 61.9775 10.2324 62.0732 10.3281C62.1689 10.4238 62.2441 10.5355 62.2988 10.6631C62.3581 10.7907 62.3877 10.9251 62.3877 11.0664C62.3877 11.2122 62.3581 11.349 62.2988 11.4766C62.2441 11.5996 62.1689 11.709 62.0732 11.8047C61.9775 11.9004 61.8659 11.9756 61.7383 12.0303C61.6107 12.085 61.4762 12.1123 61.335 12.1123C61.1891 12.1123 61.0524 12.085 60.9248 12.0303C60.8018 11.9756 60.6924 11.9004 60.5967 11.8047C60.501 11.709 60.4258 11.5996 60.3711 11.4766C60.3164 11.349 60.2891 11.2122 60.2891 11.0664C60.2891 10.9251 60.3164 10.7907 60.3711 10.6631C60.4258 10.5355 60.501 10.4238 60.5967 10.3281C60.6924 10.2324 60.8018 10.1572 60.9248 10.1025C61.0524 10.0433 61.1891 10.0137 61.335 10.0137ZM61.335 15.0244C61.4762 15.0244 61.6107 15.054 61.7383 15.1133C61.8659 15.168 61.9775 15.2432 62.0732 15.3389C62.1689 15.4346 62.2441 15.5462 62.2988 15.6738C62.3581 15.8014 62.3877 15.9359 62.3877 16.0771C62.3877 16.223 62.3581 16.3597 62.2988 16.4873C62.2441 16.6104 62.1689 16.7197 62.0732 16.8154C61.9775 16.9111 61.8659 16.9863 61.7383 17.041C61.6107 17.0957 61.4762 17.123 61.335 17.123C61.1891 17.123 61.0524 17.0957 60.9248 17.041C60.8018 16.9863 60.6924 16.9111 60.5967 16.8154C60.501 16.7197 60.4258 16.6104 60.3711 16.4873C60.3164 16.3597 60.2891 16.223 60.2891 16.0771C60.2891 15.9359 60.3164 15.8014 60.3711 15.6738C60.4258 15.5462 60.501 15.4346 60.5967 15.3389C60.6924 15.2432 60.8018 15.168 60.9248 15.1133C61.0524 15.054 61.1891 15.0244 61.335 15.0244Z" fill="white"/>
<path d="M71.7119 15.127C71.7119 15.3685 71.6709 15.585 71.5889 15.7764C71.5068 15.9678 71.3952 16.1387 71.2539 16.2891C71.1126 16.4349 70.9486 16.5602 70.7617 16.665C70.5749 16.7699 70.3743 16.8564 70.1602 16.9248C69.9505 16.9932 69.734 17.0433 69.5107 17.0752C69.2874 17.1071 69.0687 17.123 68.8545 17.123C68.3896 17.123 67.9613 17.1025 67.5693 17.0615C67.182 17.0205 66.8014 16.9544 66.4277 16.8633V15.7695C66.8288 15.8835 67.2275 15.9701 67.624 16.0293C68.0205 16.0885 68.4147 16.1182 68.8066 16.1182C69.3763 16.1182 69.7979 16.0407 70.0713 15.8857C70.3447 15.7308 70.4814 15.5098 70.4814 15.2227C70.4814 15.0996 70.4587 14.9902 70.4131 14.8945C70.3721 14.7943 70.2946 14.7008 70.1807 14.6143C70.0667 14.5231 69.889 14.4297 69.6475 14.334C69.4105 14.2383 69.0846 14.1289 68.6699 14.0059C68.36 13.9147 68.0729 13.8122 67.8086 13.6982C67.5488 13.5798 67.3232 13.4408 67.1318 13.2812C66.9404 13.1217 66.79 12.9349 66.6807 12.7207C66.5713 12.5065 66.5166 12.2536 66.5166 11.9619C66.5166 11.7705 66.5599 11.5609 66.6465 11.333C66.7376 11.1051 66.8903 10.8932 67.1045 10.6973C67.3187 10.5013 67.6081 10.3395 67.9727 10.2119C68.3372 10.0798 68.793 10.0137 69.3398 10.0137C69.6087 10.0137 69.9072 10.0296 70.2354 10.0615C70.5635 10.0889 70.9053 10.139 71.2607 10.2119V11.2715C70.887 11.1803 70.5316 11.1143 70.1943 11.0732C69.8617 11.0277 69.5723 11.0049 69.3262 11.0049C69.0299 11.0049 68.7793 11.0277 68.5742 11.0732C68.3737 11.1188 68.2096 11.1826 68.082 11.2646C67.959 11.3421 67.8701 11.4355 67.8154 11.5449C67.7607 11.6497 67.7334 11.7637 67.7334 11.8867C67.7334 12.0098 67.7562 12.1214 67.8018 12.2217C67.8519 12.3219 67.9408 12.4199 68.0684 12.5156C68.2005 12.6068 68.3828 12.7002 68.6152 12.7959C68.8477 12.887 69.1507 12.9873 69.5244 13.0967C69.93 13.2152 70.2718 13.3405 70.5498 13.4727C70.8278 13.6003 71.0534 13.7438 71.2266 13.9033C71.3997 14.0628 71.5228 14.2428 71.5957 14.4434C71.6732 14.6439 71.7119 14.8717 71.7119 15.127ZM79.9492 13.5137C79.9492 14.0469 79.874 14.5368 79.7236 14.9834C79.5732 15.4255 79.3568 15.806 79.0742 16.125C78.7917 16.4395 78.4476 16.6855 78.042 16.8633C77.6364 17.0365 77.1761 17.123 76.6611 17.123C76.1689 17.123 75.7269 17.0479 75.335 16.8975C74.9476 16.7425 74.6172 16.5169 74.3438 16.2207C74.0749 15.9245 73.8675 15.5576 73.7217 15.1201C73.5804 14.6826 73.5098 14.179 73.5098 13.6094C73.5098 13.0762 73.585 12.5908 73.7354 12.1533C73.8857 11.7113 74.1022 11.333 74.3848 11.0186C74.6673 10.6995 75.0114 10.4535 75.417 10.2803C75.8226 10.1025 76.2829 10.0137 76.7979 10.0137C77.29 10.0137 77.7298 10.0911 78.1172 10.2461C78.5091 10.3965 78.8395 10.6198 79.1084 10.916C79.3818 11.2077 79.5892 11.5723 79.7305 12.0098C79.8763 12.4473 79.9492 12.9486 79.9492 13.5137ZM78.7324 13.5684C78.7324 13.1445 78.6846 12.7754 78.5889 12.4609C78.4977 12.1419 78.3656 11.8776 78.1924 11.668C78.0192 11.4538 77.8073 11.2943 77.5566 11.1895C77.3105 11.0801 77.0348 11.0254 76.7295 11.0254C76.374 11.0254 76.0687 11.096 75.8135 11.2373C75.5628 11.374 75.3555 11.5586 75.1914 11.791C75.0319 12.0234 74.9134 12.2946 74.8359 12.6045C74.763 12.9098 74.7266 13.2311 74.7266 13.5684C74.7266 13.9922 74.7721 14.3636 74.8633 14.6826C74.959 15.0016 75.0934 15.2682 75.2666 15.4824C75.4398 15.6921 75.6494 15.8516 75.8955 15.9609C76.1416 16.0658 76.4196 16.1182 76.7295 16.1182C77.085 16.1182 77.388 16.0498 77.6387 15.9131C77.8939 15.7718 78.1012 15.585 78.2607 15.3525C78.4248 15.1201 78.5433 14.8512 78.6162 14.5459C78.6937 14.236 78.7324 13.9102 78.7324 13.5684ZM87.7627 8.44824C87.1383 8.31608 86.6006 8.25 86.1494 8.25C85.0785 8.25 84.543 8.81055 84.543 9.93164V11.1348H87.5508V12.126H84.543V17H83.333V12.126H81.125V11.1348H83.333V10C83.333 8.17253 84.2855 7.25879 86.1904 7.25879C86.6644 7.25879 87.1885 7.31348 87.7627 7.42285V8.44824ZM94.8994 16.9043C94.6305 16.9727 94.3525 17.0205 94.0654 17.0479C93.7783 17.0798 93.4867 17.0957 93.1904 17.0957C92.3291 17.0957 91.6865 16.902 91.2627 16.5146C90.8389 16.1227 90.627 15.5234 90.627 14.7168V11.1348H88.7061V10.1367H90.627V8.25L91.8164 7.94238V10.1367H94.8994V11.1348H91.8164V14.6211C91.8164 15.1133 91.9463 15.4824 92.2061 15.7285C92.4704 15.9701 92.8577 16.0908 93.3682 16.0908C93.5869 16.0908 93.8262 16.0749 94.0859 16.043C94.3457 16.0065 94.6169 15.9518 94.8994 15.8789V16.9043ZM97.5381 7.10156H98.0439C98.9235 7.10156 99.5775 7.30892 100.006 7.72363C100.434 8.13379 100.648 8.75814 100.648 9.59668V11.1758C100.648 11.3991 100.674 11.5996 100.724 11.7773C100.774 11.9505 100.86 12.0986 100.983 12.2217C101.111 12.3402 101.28 12.4313 101.489 12.4951C101.699 12.5589 101.961 12.5908 102.275 12.5908H102.569V13.541H102.275C101.943 13.541 101.669 13.5684 101.455 13.623C101.245 13.6777 101.081 13.762 100.963 13.876C100.844 13.9854 100.762 14.1266 100.717 14.2998C100.671 14.473 100.648 14.6781 100.648 14.915V17.3076C100.648 17.6904 100.603 18.0345 100.512 18.3398C100.421 18.6497 100.272 18.9118 100.067 19.126C99.8623 19.3447 99.5934 19.5111 99.2607 19.625C98.9281 19.7435 98.5225 19.8027 98.0439 19.8027H97.5381V18.8457H97.9482C99.001 18.8457 99.5273 18.333 99.5273 17.3076V14.9424C99.5273 13.8304 100.008 13.2061 100.97 13.0693C99.999 12.9645 99.5137 12.3379 99.5137 11.1895V9.62402C99.5137 8.5804 98.9919 8.05859 97.9482 8.05859H97.5381V7.10156Z" fill="#858871"/>
</svg>
