<svg width="159" height="17" viewBox="0 0 159 17" fill="none" xmlns="http://www.w3.org/2000/svg">
<path d="M3.99719 0.208771C2.11833 0.889396 0.820441 2.4208 0.288923 4.6019C-0.526894 7.89674 0.906967 11.7021 3.55219 13.2953C4.91189 14.0997 5.74007 14.2853 7.79198 14.1771C11.4014 14.0224 14.2567 12.5992 19.7079 8.26799C20.6967 7.47908 21.9452 6.55096 22.4891 6.21065C23.9106 5.32893 27.0997 3.64283 28.9785 2.79205L30.5978 2.04955L29.9797 1.94127C28.4594 1.69377 25.6164 2.68377 21.8463 4.78752C19.9551 5.8394 19.5719 6.10237 16.2345 8.50002C14.1455 10.016 11.9452 11.2999 10.7957 11.6711C8.9539 12.2744 6.04909 11.8103 4.65231 10.6811C3.30498 9.5983 2.24194 7.72658 2.06889 6.16424C1.84639 4.16877 3.3915 2.48268 5.57938 2.34346C6.53117 2.28158 6.65477 2.31252 7.38407 2.76111C8.32349 3.33346 9.3 4.49361 9.69555 5.51455C9.91805 6.05596 10.0046 6.59737 10.0293 7.52549C10.054 8.23705 10.1158 8.8094 10.1653 8.8094C10.3507 8.8094 11.1665 6.86033 11.3025 6.05596C11.7227 3.73565 10.4248 1.50815 8.05155 0.456271C7.08741 0.0231461 4.86245 -0.116073 3.99719 0.208771Z" fill="black"/>
<path d="M150.844 0.239799C147.976 1.18339 146.406 3.7512 147.061 6.38089C147.247 7.15433 147.988 8.80948 148.137 8.80948C148.186 8.80948 148.248 8.23714 148.273 7.52558C148.297 6.59745 148.384 6.05605 148.606 5.51464C149.002 4.4937 149.978 3.33355 150.918 2.7612C151.647 2.31261 151.771 2.28167 152.723 2.34355C153.996 2.43636 154.861 2.86949 155.529 3.78214C155.8 4.15339 156.085 4.72574 156.171 5.08152C156.579 6.78308 155.281 9.50558 153.427 10.8668C152.129 11.8259 149.187 12.2281 147.519 11.6867C146.32 11.2845 144.342 10.1398 142.216 8.60839C138.644 6.04058 138.359 5.85495 136.456 4.78761C132.686 2.68386 129.843 1.69386 128.322 1.94136L127.704 2.04964L129.323 2.79214C131.202 3.64292 134.391 5.32902 135.813 6.21074C136.357 6.55105 137.605 7.47917 138.594 8.26808C143.996 12.5529 146.901 14.007 150.423 14.1771C152.463 14.2854 153.452 14.0843 154.75 13.2954C157.383 11.7021 158.817 7.86589 158.013 4.60199C157.469 2.38996 156.147 0.843081 154.243 0.208862C153.44 -0.0695754 151.709 -0.0541067 150.844 0.239799Z" fill="black"/>
<path d="M115.393 1.09056C110.139 1.46181 103.452 2.96228 97.7538 5.03509C96.9379 5.329 94.9108 6.1179 93.242 6.79853C84.0703 10.4801 80.3991 11.4082 75.5413 11.2535C74.4041 11.2226 73.4893 11.2071 73.5017 11.2226C73.5264 11.2535 74.231 11.3928 75.0715 11.5474C77.2471 11.9342 83.0567 11.9187 85.5783 11.5474C91.116 10.6967 95.8007 9.31994 102.352 6.62837C105.677 5.26712 107.148 4.834 110.3 4.26165C115.417 3.33353 120.584 3.48821 123.403 4.64837C125.677 5.5765 127.111 7.12337 127.111 8.62384C127.111 9.24259 127.049 9.39728 126.579 9.95416C125.776 10.9287 124.886 11.2071 122.723 11.2071C121.19 11.2071 120.906 11.1607 120.251 10.8359C119.212 10.3099 118.347 9.18072 117.692 7.49462C117.123 6.00962 117.061 6.00962 116.666 7.54103C116.085 9.75306 117.086 11.8413 119.385 13.2181C120.856 14.0998 121.796 14.3937 123.588 14.4865C125.974 14.6257 127.494 14.007 128.829 12.3828C130.72 10.0624 130.325 7.0615 127.766 4.50915C125.776 2.49821 123.291 1.36899 120.288 1.07509C118.594 0.904931 117.803 0.904931 115.393 1.09056Z" fill="black"/>
<path d="M30.9927 3.55008C29.4723 3.75117 28.3227 4.36992 27.3338 5.53008C26.4315 6.58195 26.073 7.54101 26.0607 8.8868C26.0607 9.83039 26.1225 10.0934 26.4809 10.9441C26.963 12.0579 28.3103 13.7285 29.361 14.5019C30.4117 15.2754 31.895 16.0488 33.2547 16.4974C34.4413 16.8996 34.5526 16.9151 38.1125 16.9305C42.1792 16.9305 43.8727 16.7449 48.2484 15.8323C53.3288 14.7649 56.6909 13.713 62.5252 11.3463C69.1507 8.65476 72.4016 7.60289 75.9368 7.03055C77.519 6.76758 81.0295 6.6593 82.2408 6.84492C82.7723 6.92226 82.8218 6.9068 82.488 6.79851C81.4374 6.47367 78.3966 6.17977 75.8997 6.17977C69.1259 6.17977 62.723 7.6957 53.6254 11.4391C50.4116 12.754 48.2114 13.3882 44.911 13.9451C43.2176 14.2235 42.2658 14.2854 39.3486 14.3009C36.1348 14.3009 35.7021 14.2699 34.4043 13.9451C32.7232 13.5119 31.4995 12.9551 30.5353 12.1507C27.8036 9.87679 28.5823 7.33992 32.1669 6.79851C34.429 6.44273 36.3078 7.10789 37.3832 8.62383C37.8653 9.30445 38.7306 11.2845 38.7306 11.7021C38.7306 12.1507 38.9654 11.8568 39.225 11.0834C39.6082 10.016 39.6205 8.6857 39.2621 7.6957C38.2856 5.00414 34.4784 3.10149 30.9927 3.55008Z" fill="black"/>
</svg>
