<svg width="159" height="17" viewBox="0 0 159 17" fill="none" xmlns="http://www.w3.org/2000/svg">
<path d="M3.93676 0.199372C2.05791 0.879997 0.760016 2.4114 0.228499 4.5925C-0.587319 7.88734 0.846542 11.6927 3.49177 13.2859C4.85147 14.0903 5.67964 14.2759 7.73155 14.1677C11.3409 14.013 14.1963 12.5898 19.6474 8.25859C20.6363 7.46968 21.8848 6.54156 22.4286 6.20125C23.8501 5.31953 27.0392 3.63343 28.9181 2.78265L30.5374 2.04015L29.9193 1.93187C28.3989 1.68437 25.5559 2.67437 21.7859 4.77812C19.8947 5.83 19.5115 6.09297 16.174 8.49062C14.085 10.0066 11.8848 11.2905 10.7352 11.6617C8.89347 12.265 5.98867 11.8009 4.59189 10.6717C3.24455 9.5889 2.18152 7.71718 2.00846 6.15484C1.78597 4.15937 3.33108 2.47328 5.51895 2.33406C6.47074 2.27218 6.59435 2.30312 7.32364 2.75172C8.26307 3.32406 9.23958 4.48422 9.63513 5.50515C9.85762 6.04656 9.94415 6.58797 9.96887 7.51609C9.99359 8.22765 10.0554 8.8 10.1048 8.8C10.2903 8.8 11.1061 6.85093 11.242 6.04656C11.6623 3.72625 10.3644 1.49875 7.99113 0.446872C7.02698 0.0137467 4.80202 -0.125472 3.93676 0.199372Z" fill="#FF8E3D"/>
<path d="M150.783 0.2304C147.916 1.17399 146.346 3.74181 147.001 6.37149C147.186 7.14493 147.928 8.80009 148.076 8.80009C148.126 8.80009 148.188 8.22774 148.212 7.51618C148.237 6.58805 148.323 6.04665 148.546 5.50524C148.942 4.48431 149.918 3.32415 150.857 2.75181C151.587 2.30321 151.71 2.27227 152.662 2.33415C153.935 2.42696 154.801 2.86009 155.468 3.77274C155.74 4.14399 156.024 4.71634 156.111 5.07212C156.519 6.77368 155.221 9.49618 153.367 10.8574C152.069 11.8165 149.127 12.2187 147.458 11.6773C146.259 11.2751 144.281 10.1304 142.155 8.59899C138.583 6.03118 138.299 5.84555 136.395 4.77821C132.625 2.67446 129.782 1.68446 128.262 1.93196L127.644 2.04024L129.263 2.78274C131.142 3.63352 134.331 5.31962 135.752 6.20134C136.296 6.54165 137.545 7.46977 138.534 8.25868C143.935 12.5435 146.84 13.9976 150.363 14.1677C152.403 14.276 153.391 14.0749 154.689 13.286C157.322 11.6927 158.756 7.85649 157.953 4.59259C157.409 2.38056 156.086 0.833681 154.183 0.199463C153.379 -0.0789748 151.649 -0.0635061 150.783 0.2304Z" fill="#FF8E3D"/>
<path d="M115.332 1.08116C110.079 1.45241 103.392 2.95288 97.6933 5.02569C96.8775 5.3196 94.8503 6.1085 93.1816 6.78913C84.0098 10.4707 80.3387 11.3988 75.4808 11.2441C74.3436 11.2132 73.4289 11.1977 73.4413 11.2132C73.466 11.2441 74.1706 11.3834 75.0111 11.538C77.1866 11.9248 82.9962 11.9093 85.5179 11.538C91.0555 10.6873 95.7403 9.31054 102.292 6.61897C105.617 5.25772 107.088 4.8246 110.24 4.25225C115.357 3.32413 120.524 3.47881 123.342 4.63897C125.617 5.5671 127.05 7.11397 127.05 8.61444C127.05 9.23319 126.989 9.38788 126.519 9.94476C125.715 10.9193 124.825 11.1977 122.662 11.1977C121.13 11.1977 120.845 11.1513 120.19 10.8265C119.152 10.3005 118.287 9.17132 117.631 7.48522C117.063 6.00022 117.001 6.00022 116.605 7.53163C116.025 9.74366 117.026 11.8319 119.325 13.2087C120.796 14.0904 121.735 14.3843 123.528 14.4771C125.913 14.6163 127.434 13.9976 128.769 12.3734C130.66 10.053 130.264 7.0521 127.706 4.49975C125.715 2.48881 123.231 1.35959 120.227 1.06569C118.534 0.895532 117.743 0.895532 115.332 1.08116Z" fill="#FF8E3D"/>
<path d="M30.9322 3.54068C29.4118 3.74177 28.2623 4.36052 27.2734 5.52068C26.3711 6.57255 26.0126 7.53162 26.0002 8.8774C26.0002 9.82099 26.062 10.084 26.4205 10.9347C26.9026 12.0485 28.2499 13.7191 29.3006 14.4925C30.3513 15.266 31.8346 16.0394 33.1943 16.488C34.3809 16.8902 34.4922 16.9057 38.0521 16.9211C42.1188 16.9211 43.8123 16.7355 48.188 15.8229C53.2683 14.7555 56.6305 13.7036 62.4648 11.3369C69.0902 8.64536 72.3412 7.59349 75.8764 7.02115C77.4586 6.75818 80.969 6.6499 82.1804 6.83552C82.7119 6.91287 82.7614 6.8974 82.4276 6.78912C81.3769 6.46427 78.3362 6.17037 75.8393 6.17037C69.0655 6.17037 62.6626 7.6863 53.565 11.4297C50.3512 12.7446 48.1509 13.3788 44.8506 13.9357C43.1571 14.2141 42.2053 14.276 39.2882 14.2915C36.0744 14.2915 35.6417 14.2605 34.3438 13.9357C32.6628 13.5026 31.439 12.9457 30.4749 12.1413C27.7431 9.8674 28.5219 7.33052 32.1065 6.78912C34.3686 6.43333 36.2474 7.09849 37.3228 8.61443C37.8049 9.29505 38.6701 11.2751 38.6701 11.6927C38.6701 12.1413 38.905 11.8474 39.1646 11.074C39.5478 10.0066 39.5601 8.6763 39.2017 7.6863C38.2251 4.99474 34.418 3.09209 30.9322 3.54068Z" fill="#FF8E3D"/>
</svg>
