<svg width="276" height="31" viewBox="0 0 276 31" fill="none" xmlns="http://www.w3.org/2000/svg">
<path d="M16.3444 1.14343C10.5009 1.855 5.41218 4.37781 2.73843 7.82781C-1.03501 12.7441 -0.840949 20.2478 3.16968 24.3447C5.13186 26.35 8.17217 27.4066 11.234 27.1047C15.4603 26.7166 18.2203 24.9269 19.8159 21.6063C20.5706 20.0322 20.5922 19.9244 20.5922 17.4016C20.5922 14.9434 20.549 14.7494 19.9022 13.3694C18.5869 10.5662 16.3228 8.86281 13.9294 8.84125C10.9969 8.81969 9.89717 11.3641 12.5278 12.1619C13.2825 12.3775 13.649 12.3559 14.9212 12.0325L16.4306 11.6444L16.9481 12.1403C17.2284 12.4206 17.7459 13.1753 18.0694 13.8222C18.6084 14.9219 18.6515 15.2453 18.6515 17.5094C18.6515 19.7734 18.6084 20.0753 18.0694 21.0672C16.5815 23.935 13.4334 25.4659 9.5953 25.2072C8.32311 25.1425 7.46061 24.9484 6.61968 24.5603C3.70874 23.245 1.94061 19.9244 1.94061 15.8922C1.94061 12.55 2.93249 10.2212 5.41218 7.76312C6.72749 6.44781 7.46061 5.90875 9.0778 5.1325C12.1828 3.64469 14.8565 3.04093 19.2984 2.91156C25.2497 2.7175 30.015 3.66625 37.1306 6.42625C38.1656 6.83594 39.0928 7.15937 39.2006 7.15937C39.2869 7.15937 39.6965 6.87906 40.1062 6.55562L40.8394 5.93031L38.0362 4.85219C31.1362 2.13531 26.91 1.165 21.5625 1.01406C19.6003 0.970934 17.2715 1.01406 16.3444 1.14343Z" fill="#FF8E3D"/>
<path d="M251.483 1.1219C247.861 1.51003 243.225 2.78221 237.964 4.85221L235.161 5.93034L235.894 6.55565C236.303 6.87909 236.713 7.1594 236.799 7.1594C236.886 7.1594 237.468 6.94378 238.093 6.70659C242.341 5.00315 246.977 3.68784 250.599 3.14878C254.179 2.63128 259.548 2.82534 262.631 3.60159C266.081 4.44253 268.561 5.75784 270.588 7.76315C273.067 10.2213 274.059 12.55 274.059 15.8922C274.059 17.8975 273.542 20.0107 272.679 21.4769C271.278 23.8703 269.337 25.0347 266.405 25.2072C262.567 25.466 259.418 23.935 257.931 21.0672C257.392 20.0753 257.348 19.7735 257.348 17.5094C257.348 15.2453 257.392 14.9219 257.931 13.8222C258.254 13.1753 258.772 12.4207 259.052 12.1403L259.569 11.6444L261.079 12.0325C262.351 12.356 262.717 12.3775 263.472 12.1619C266.103 11.3641 265.003 8.81971 262.071 8.84128C259.677 8.86284 257.413 10.5663 256.098 13.3694C255.451 14.7494 255.408 14.9435 255.408 17.4016C255.408 19.9244 255.429 20.0322 256.184 21.6063C257.413 24.1722 259.569 25.9835 262.286 26.695C267.634 28.1182 272.485 26.1775 274.663 21.7572C276.841 17.3369 276.28 11.86 273.218 7.80628C269.423 2.76065 260.863 0.130026 251.483 1.1219Z" fill="#FF8E3D"/>
<path d="M98.0662 1.74718C96.4491 2.26468 95.5219 2.86843 94.3575 4.16218C93.0422 5.62843 92.6109 6.9653 92.6325 9.53124C92.6541 11.7953 93.3009 14.1241 94.3575 15.8059C94.6594 16.3019 94.875 16.7116 94.8319 16.7547C94.7887 16.7978 93.3009 16 91.5328 14.9866C83.145 10.1781 75.5334 6.49093 70.5094 4.78749C62.445 2.02749 53.7337 1.72561 46.7906 3.96811C41.5078 5.64999 37.2169 9.2078 34.9959 13.7359C34.004 15.7412 33.7453 16.9487 33.7669 19.45C33.7884 21.3691 33.8747 21.9512 34.349 23.2019C36.2034 27.9456 40.4081 30.8781 45.389 30.8781C47.4591 30.8781 48.9684 30.49 50.9953 29.4981C53.8416 28.075 55.9547 25.9619 56.0625 24.4094C56.1703 23.0725 56.0409 22.6197 55.3294 21.9081C54.7687 21.3475 54.4237 21.175 53.8416 21.175C52.2459 21.175 51.4481 22.6412 51.75 25.0347C51.9009 26.2637 51.8578 26.3284 50.2406 27.2556C48.5803 28.2044 46.9631 28.5709 44.7637 28.4631C43.1034 28.3984 42.5859 28.2691 41.3353 27.6653C37.3031 25.7247 35.19 21.1534 36.3328 16.7978C37.605 11.9031 42.6937 7.3103 48.0412 6.18905C50.0466 5.77936 54.7256 5.7578 57.0328 6.16749C64.0837 7.41811 71.1562 10.2859 88.2984 18.8462C99.1659 24.3016 102.875 25.8109 108.524 27.1909C114.303 28.6141 120.276 28.9806 124.308 28.2044C130.949 26.9106 135.391 23.0509 136.836 17.3153C137.375 15.1591 137.181 11.9462 136.426 10.3506C134.528 6.42624 129.159 4.67968 123.941 6.29686C121.462 7.05155 119.888 8.58249 119.888 10.2212C119.888 12.1403 122.561 12.5069 124.114 10.7819C124.373 10.5231 124.804 9.85468 125.063 9.31561C125.343 8.77655 125.666 8.28061 125.796 8.19436C126.227 7.89249 129.483 8.02186 130.626 8.3453C132.2 8.81968 133.472 9.85468 134.183 11.2562C134.766 12.3775 134.787 12.5716 134.723 14.8141C134.658 17.035 134.615 17.2937 133.838 18.8894C132.286 22.1453 129.073 24.5819 124.739 25.7462C122.195 26.4147 116.632 26.4362 113.376 25.7462C104.276 23.8487 96.7725 18.4797 94.9181 12.55C94.3575 10.7387 94.4222 7.52593 95.0259 6.38311C95.6512 5.21874 97.0312 4.0328 98.2819 3.62311C99.2953 3.25655 102.745 3.14874 103.198 3.45061C103.327 3.53686 103.716 4.2053 104.039 4.95999C104.707 6.4478 105.225 6.94374 106.131 6.94374C107.381 6.94374 107.899 5.64999 107.209 4.24843C106.044 1.83343 101.602 0.625925 98.0662 1.74718Z" fill="#FF8E3D"/>
<path d="M172.823 1.46685C169.546 2.28622 167.433 5.08935 168.964 6.59873C169.373 7.02998 170.322 7.05154 170.904 6.64185C171.142 6.46935 171.616 5.71466 171.961 4.95997C172.284 4.20529 172.672 3.53685 172.802 3.4506C173.255 3.14872 176.705 3.25654 177.718 3.6231C178.969 4.03279 180.349 5.21872 180.974 6.3831C181.578 7.52591 181.642 10.7387 181.082 12.55C179.227 18.4797 171.724 23.8487 162.624 25.7462C159.368 26.4362 153.805 26.4147 151.261 25.7462C146.927 24.5819 143.714 22.1453 142.162 18.8894C141.385 17.2937 141.342 17.035 141.277 14.814C141.213 12.5715 141.234 12.3775 141.817 11.2562C142.528 9.85466 143.8 8.81966 145.374 8.34529C146.517 8.02185 149.795 7.89248 150.204 8.19435C150.312 8.2806 150.636 8.77654 150.916 9.3156C151.822 11.0837 152.878 11.9031 154.28 11.9031C155.293 11.9031 156.112 11.1269 156.112 10.135C156.112 8.58248 154.474 7.02998 152.059 6.29685C146.841 4.67966 141.472 6.42623 139.574 10.3506C138.819 11.9462 138.625 15.159 139.164 17.3153C140.307 21.8865 143.498 25.4012 148.113 27.1909C152.986 29.0669 159.778 29.0669 167.476 27.1909C173.125 25.8109 176.834 24.3015 187.702 18.8462C204.844 10.2859 211.916 7.4181 218.967 6.16748C221.555 5.71466 226.126 5.77935 228.282 6.29685C233.651 7.56904 238.417 11.9894 239.667 16.7978C240.81 21.1534 238.697 25.7247 234.665 27.6653C231.84 29.0237 227.894 28.7219 225.242 26.9537L224.185 26.2422L224.228 24.3447C224.272 22.5119 224.25 22.4472 223.625 21.8219C221.964 20.14 219.377 22.0375 219.937 24.5172C220.218 25.7247 221.123 26.9106 222.59 28.0103C225.199 29.9509 227.786 30.8781 230.611 30.8781C238.999 30.8781 244.583 22.5119 241.414 14.6847C238.028 6.31841 228.153 1.57466 216.207 2.60966C210.385 3.08404 205.943 4.3131 199.539 7.15935C195.852 8.7981 189.664 12.0325 184.467 14.9865C182.699 16 181.211 16.7978 181.168 16.7547C181.125 16.7115 181.341 16.3019 181.642 15.8059C182.699 14.124 183.346 11.7953 183.367 9.53123C183.389 6.68498 182.958 5.5206 181.254 3.7956C179.508 2.0706 178.128 1.50997 175.303 1.42372C174.182 1.40216 173.061 1.40216 172.823 1.46685Z" fill="#FF8E3D"/>
<path d="M44.3756 8.23748C43.9444 8.47467 43.5347 8.75498 43.47 8.86279C43.2759 9.1431 54.2081 13.9731 60.8062 16.4959C62.5312 17.1428 66.1753 18.4581 68.8922 19.4069C71.6306 20.3556 74.0025 21.1965 74.175 21.2612C74.3475 21.3475 74.6709 21.6709 74.865 22.0375C75.5765 23.3097 78.0562 23.3312 78.2287 22.0806C78.3797 21.0025 77.0644 20.2047 72.6225 18.6953C65.9381 16.4097 55.4156 12.3344 50.4994 10.1565C47.5884 8.86279 45.2165 7.80623 45.195 7.80623C45.1734 7.82779 44.8069 8.02185 44.3756 8.23748Z" fill="#FF8E3D"/>
<path d="M225.414 10.1781C220.584 12.3344 210.17 16.3665 203.377 18.6953C198.936 20.2047 197.62 21.0025 197.771 22.0806C197.944 23.3312 200.423 23.3097 201.135 22.0375C201.329 21.6709 201.652 21.3475 201.825 21.2612C201.997 21.1965 204.391 20.3556 207.108 19.4069C209.846 18.4581 213.469 17.1428 215.194 16.4959C221.813 13.9515 232.724 9.1431 232.53 8.86279C232.422 8.66873 230.805 7.78466 230.676 7.82779C230.632 7.82779 228.261 8.88435 225.414 10.1781Z" fill="#FF8E3D"/>
<path d="M66.4125 15.1375C66.4125 15.2022 67.2103 15.5472 68.2022 15.8922C69.9487 16.539 70.035 16.539 75.5334 16.6469C78.5737 16.7115 81.075 16.69 81.075 16.6253C81.075 16.539 80.4712 16.2156 79.7381 15.8706L78.3797 15.2453L72.3853 15.1375C69.1078 15.0728 66.4125 15.0728 66.4125 15.1375Z" fill="#FF8E3D"/>
<path d="M203.442 15.1375L197.62 15.2453L196.283 15.8706C195.529 16.2156 194.925 16.539 194.925 16.6253C194.925 16.69 197.426 16.7115 200.467 16.6469C205.965 16.539 206.051 16.539 207.819 15.8922C208.79 15.5472 209.587 15.1806 209.587 15.0943C209.587 14.9865 209.523 14.9434 209.437 14.965C209.329 14.9865 206.655 15.0728 203.442 15.1375Z" fill="#FF8E3D"/>
<path d="M3.01875 15.8922V16.6469H10.3716C16.9913 16.6469 17.7244 16.6037 17.595 16.3019C17.5303 16.1078 17.4656 15.7844 17.4656 15.5472C17.4656 15.159 17.2284 15.1375 10.2422 15.1375H3.01875V15.8922Z" fill="#FF8E3D"/>
<path d="M21.8212 15.8275L21.8859 16.539L27.2981 16.6037L32.7103 16.6469L32.9259 15.8922L33.1631 15.1375H27.4491H21.7566L21.8212 15.8275Z" fill="#FF8E3D"/>
<path d="M38.0794 15.3315C38.0147 15.4178 37.8637 15.7628 37.7559 16.0647L37.5403 16.6468L47.6531 16.69C53.2378 16.7331 57.7875 16.7115 57.7875 16.6468C57.7875 16.5822 56.9897 16.2156 55.9978 15.8275L54.2081 15.1375H46.2084C41.7881 15.1375 38.144 15.2237 38.0794 15.3315Z" fill="#FF8E3D"/>
<path d="M98.0231 15.8922L98.5837 16.6469H115.812H133.041V15.8922V15.1375H115.23H97.4409L98.0231 15.8922Z" fill="#FF8E3D"/>
<path d="M142.959 15.8922V16.6469H160.188H177.416L177.977 15.8922L178.559 15.1375H160.77H142.959V15.8922Z" fill="#FF8E3D"/>
<path d="M219.894 15.849C218.967 16.2372 218.212 16.5822 218.212 16.6468C218.212 16.7115 222.762 16.7331 228.347 16.69L238.481 16.6468L238.201 15.9353L237.921 15.2453L229.727 15.2022L221.555 15.1806L219.894 15.849Z" fill="#FF8E3D"/>
<path d="M243.074 15.8922L243.29 16.6469H248.637C254.351 16.6469 254.222 16.6684 254.222 15.5472C254.222 15.1591 254.006 15.1375 248.529 15.1375H242.837L243.074 15.8922Z" fill="#FF8E3D"/>
<path d="M258.534 15.5472C258.534 15.7844 258.47 16.1078 258.405 16.3019C258.276 16.6037 259.009 16.6469 265.628 16.6469H272.981V15.8922V15.1375H265.758C258.772 15.1375 258.534 15.159 258.534 15.5472Z" fill="#FF8E3D"/>
</svg>
