<svg width="27" height="27" viewBox="0 0 27 27" fill="none" xmlns="http://www.w3.org/2000/svg">
<g clip-path="url(#clip0)">
<path d="M26.9948 10.3232C26.992 10.2922 26.9859 10.2615 26.9764 10.2318C26.9702 10.2053 26.9616 10.1794 26.9508 10.1544C26.9381 10.13 26.9231 10.1069 26.9058 10.0856C26.8884 10.0602 26.8683 10.0368 26.8459 10.0158C26.8387 10.0095 26.8356 10.0009 26.8279 9.99464L22.5001 6.63344V3.14984C22.5001 2.40424 21.8956 1.79977 21.15 1.79977H16.2731L14.3204 0.283634C13.838 -0.0925917 13.1615 -0.0925917 12.6791 0.283634L10.726 1.79977H5.84912C5.10352 1.79977 4.49905 2.40419 4.49905 3.14984V6.63349L0.172551 9.99469C0.164905 10.001 0.16174 10.0096 0.154568 10.0158C0.132155 10.0368 0.112062 10.0602 0.0947115 10.0856C0.0774137 10.107 0.0623309 10.13 0.0497268 10.1545C0.0388102 10.1794 0.0302668 10.2054 0.0240966 10.2319C0.0147094 10.2612 0.00853912 10.2913 0.00563858 10.3219C0.00563858 10.3314 0.000259399 10.3395 0.000259399 10.3489V25.651C0.000892244 25.9372 0.0934986 26.2157 0.264419 26.4452C0.267109 26.4493 0.267584 26.4542 0.270695 26.4578C0.273859 26.4614 0.28061 26.4655 0.285092 26.4704C0.537914 26.8031 0.931122 26.9992 1.34896 27.001H25.6502C26.0697 26.9998 26.4645 26.8027 26.7177 26.4682C26.7212 26.4637 26.7267 26.4624 26.7298 26.4579C26.7329 26.4534 26.7334 26.4493 26.7361 26.4453C26.907 26.2157 26.9996 25.9372 27.0003 25.651V10.3502C27.0002 10.3407 26.9953 10.3326 26.9948 10.3232ZM13.2295 0.993739C13.3867 0.868858 13.6092 0.868858 13.7664 0.993739L14.8046 1.79972H12.1944L13.2295 0.993739ZM1.46234 26.101L13.2296 16.9606C13.3868 16.8359 13.6092 16.8359 13.7664 16.9606L25.5368 26.101H1.46234ZM26.1002 25.3994L14.3204 16.2504C13.8379 15.8745 13.1616 15.8745 12.6791 16.2504L0.898899 25.3994V11.0356L8.27344 16.7621C8.46994 16.9145 8.75272 16.8787 8.90507 16.6822C9.05743 16.4857 9.02167 16.2029 8.82518 16.0506L1.33319 10.2332L4.4991 7.77288V11.2502C4.4991 11.4987 4.70061 11.7002 4.94911 11.7002C5.19766 11.7002 5.39911 11.4987 5.39911 11.2502V3.14979C5.39911 2.90124 5.60057 2.69978 5.84912 2.69978H21.1499C21.3984 2.69978 21.5999 2.90124 21.5999 3.14979V11.2502C21.5999 11.4987 21.8013 11.7002 22.0499 11.7002C22.2984 11.7002 22.4999 11.4987 22.4999 11.2502V7.77288L25.6658 10.2332L18.1608 16.061C18.0317 16.1588 17.9651 16.3185 17.9865 16.4791C18.0079 16.6397 18.114 16.7764 18.2642 16.837C18.4145 16.8975 18.5857 16.8728 18.7125 16.772L26.1001 11.0356V25.3994H26.1002Z" fill="black"/>
<path d="M18.8996 10.799V8.99891C18.8996 6.01642 16.4818 3.59863 13.4993 3.59863C10.5168 3.59863 8.09904 6.01642 8.09904 8.99891C8.09904 11.9814 10.5168 14.3992 13.4993 14.3992C13.7479 14.3992 13.9493 14.1977 13.9493 13.9492C13.9493 13.7006 13.7479 13.4992 13.4993 13.4992C11.0139 13.4992 8.99911 11.4844 8.99911 8.99896C8.99911 6.51357 11.0139 4.49875 13.4993 4.49875C15.9847 4.49875 17.9995 6.51357 17.9995 8.99896V10.799C17.9995 11.2961 17.5966 11.6991 17.0995 11.6991C16.6024 11.6991 16.1994 11.2961 16.1994 10.799V8.99896C16.1994 8.75041 15.998 8.54896 15.7494 8.54896C15.5009 8.54896 15.2994 8.75041 15.2994 8.99896C15.2994 9.99311 14.4935 10.799 13.4993 10.799C12.5052 10.799 11.6992 9.99311 11.6992 8.99896C11.6992 8.00481 12.5052 7.19889 13.4993 7.19889C13.7479 7.19889 13.9493 6.99743 13.9493 6.74888C13.9493 6.50033 13.7479 6.29888 13.4993 6.29888C12.2909 6.29619 11.2277 7.09679 10.8965 8.25901C10.5653 9.42123 11.0467 10.662 12.0751 11.2967C13.1034 11.9315 14.4283 11.8056 15.3188 10.9886C15.4167 11.9403 16.2439 12.6479 17.1993 12.5973C18.1547 12.5467 18.9026 11.7557 18.8996 10.799Z" fill="black"/>
</g>
<defs>
<clipPath id="clip0">
<rect width="27" height="27" fill="white"/>
</clipPath>
</defs>
</svg>
