<?xml version="1.0"?>
<svg xmlns="http://www.w3.org/2000/svg" xmlns:xlink="http://www.w3.org/1999/xlink" xmlns:svgjs="http://svgjs.com/svgjs" version="1.1" width="512" height="512" x="0" y="0" viewBox="0 0 512.211 512.211" style="enable-background:new 0 0 512 512" xml:space="preserve" class=""><g><path xmlns="http://www.w3.org/2000/svg" d="m412.453 64.761c-41.762-41.762-97.287-64.761-156.347-64.761s-114.586 22.999-156.348 64.761-64.761 97.287-64.761 156.347 23 114.585 64.761 156.347c38.207 38.206 87.935 60.709 141.348 64.264v70.491l23.683-16.813c4.172-2.962 102.725-73.087 150.869-121.231 19.558-19.558 34.854-42.797 45.465-69.073 10.677-26.44 16.091-54.697 16.091-83.985 0-59.06-22.999-114.585-64.761-156.347zm-141.347 388.956v-41.5h-15c-105.378 0-191.109-85.731-191.109-191.108 0-105.378 85.731-191.109 191.109-191.109 105.377 0 191.108 85.731 191.108 191.109 0 50.993-18.741 97.816-52.77 131.845-32.365 32.365-90.724 76.707-123.338 100.763z" fill="#191919" data-original="#000000" style="" class=""/><path xmlns="http://www.w3.org/2000/svg" d="m256.106 79.217c-78.239 0-141.892 63.652-141.892 141.892 0 78.239 63.652 141.891 141.892 141.891 78.239 0 141.891-63.652 141.891-141.891 0-78.24-63.652-141.892-141.891-141.892zm0 253.783c-61.697 0-111.892-50.194-111.892-111.891s50.194-111.892 111.892-111.892c61.697 0 111.891 50.194 111.891 111.892 0 61.697-50.194 111.891-111.891 111.891z" fill="#191919" data-original="#000000" style="" class=""/><path xmlns="http://www.w3.org/2000/svg" d="m240.993 198.836h30.226v86.226h-30.226z" fill="#191919" data-original="#000000" style="" class=""/><path xmlns="http://www.w3.org/2000/svg" d="m256.106 157.155c-11.136 0-18.455 7-18.455 16.068s7.318 16.068 18.455 16.068c11.136 0 18.454-7 18.454-16.545 0-9.068-7.318-15.591-18.454-15.591z" fill="#191919" data-original="#000000" style="" class=""/></g></svg>
