<?xml version="1.0"?>
<svg xmlns="http://www.w3.org/2000/svg" xmlns:xlink="http://www.w3.org/1999/xlink" xmlns:svgjs="http://svgjs.com/svgjs" version="1.1" width="512" height="512" x="0" y="0" viewBox="0 0 511.814 511.814" style="enable-background:new 0 0 512 512" xml:space="preserve" class=""><g><g xmlns="http://www.w3.org/2000/svg"><path d="m424.258 163.482c-18.108 18.109-18.655 18.553-18.552 18.553 8.71 15.489 7.64 35.21-3.79 49.8-3.19 4.069-6.36 8.2-9.51 12.39l52.226 52.226c10.206-44.96 3.268-92.637-20.374-132.969z" fill="#191919" data-original="#000000" style="" class=""/><path d="m309.136 339.224c-22.388 15.062-26.936 19.05-27.26 19.05l62.833 62.833c14.295-6.811 27.724-15.482 39.833-25.747l-64.246-64.246c-3.65 2.851-7.37 5.561-11.16 8.11z" fill="#191919" data-original="#000000" style="" class=""/><path d="m342.516 310.915 63.23 63.229c11.695-13.787 21.29-29.214 28.44-45.72l-59.65-59.65c-12.161 17.317-17.327 26.675-32.02 42.141z" fill="#191919" data-original="#000000" style="" class=""/><path d="m277.776 129.595c4.19-3.15 8.31-6.32 12.38-9.5 15.137-11.87 36.336-12.823 52.43-2.22l18.573-18.572c-41.9-25.545-90.886-32.089-135.609-21.934z" fill="#191919" data-original="#000000" style="" class=""/><path d="m89.451 208.269c-10.048 37.382-8.017 77.641 6.213 114.055 17.07-17.961 33.731-37.319 49.852-57.989z" fill="#191919" data-original="#000000" style="" class=""/><path d="m253.226 147.465-59.65-59.649c-16.508 7.15-31.935 16.745-45.721 28.438 65.418 65.418 63.131 63.23 63.231 63.23 15.657-14.875 25.084-19.988 42.14-32.019z" fill="#191919" data-original="#000000" style="" class=""/><path d="m260.406 336.805c32.442-23.824 41.922-27.027 60.89-47.11 18.687-19.847 20.792-30.237 57-76.35 4.562-5.795 4.286-14.358-1.2-19.86l-12.63-12.63c235.067-235.067 67.171-67.179 130.227-130.235 9.202-9.203 9.209-24.193-.001-33.433-15.511-15.509-37.743-20.994-57.227-14.517-7.862 2.612-12.117 11.104-9.504 18.965 2.612 7.862 11.104 12.114 18.965 9.504 7.275-2.416 15.133-.496 21.505 3.317-66.782 66.782 105.588-105.594-125.185 125.179l-14.73-14.73c-5.312-5.311-13.85-5.912-19.86-1.199-44.775 35.149-57.107 38.855-76.35 57-20.12 19-23.564 28.827-47.11 60.89-48.612 66.297-83.316 97.312-162.327 176.323-16.868 16.869-16.87 44.327 0 61.213 16.909 16.91 44.302 16.913 61.213 0 87.972-87.973 113.775-116.523 176.324-162.327z" fill="#191919" data-original="#000000" style="" class=""/><path d="m257.666 376.484c-20.67 16.124-40.034 32.78-57.998 49.849 37.478 14.648 77.819 15.959 114.062 6.216z" fill="#191919" data-original="#000000" style="" class=""/><path d="m190.886 201.705-64.246-64.246c-10.266 12.11-18.937 25.54-25.747 39.832l62.833 62.834c6.45-8.88 12.81-17.971 19.05-27.261 3.18-4.726 8.008-11.159 8.11-11.159z" fill="#191919" data-original="#000000" style="" class=""/></g></g></svg>
