<?xml version="1.0"?>
<svg xmlns="http://www.w3.org/2000/svg" xmlns:xlink="http://www.w3.org/1999/xlink" xmlns:svgjs="http://svgjs.com/svgjs" version="1.1" width="512" height="512" x="0" y="0" viewBox="0 0 512 512" style="enable-background:new 0 0 512 512" xml:space="preserve" class=""><g><g xmlns="http://www.w3.org/2000/svg"><path d="m476.437 313.18h-32.069c-6.838 0-12.404 5.531-12.472 12.353h-46.677c.679-6.078 1.029-12.224 1.029-18.355 0-51.225-24.033-99.323-64.635-130.178l43.164-51.051c2.321 1.922 5.139 2.867 7.948 2.867 3.547 0 7.074-1.5 9.539-4.415l20.706-24.489c12.659-14.975 10.777-37.457-4.196-50.118-7.253-6.132-16.463-9.074-25.928-8.281-9.466.793-18.057 5.224-24.19 12.477l-20.706 24.487c-2.152 2.545-3.184 5.776-2.906 9.098.275 3.279 1.799 6.256 4.286 8.402l-49.144 58.124c-18.319-6.874-37.599-10.36-57.375-10.36-90.12 0-163.437 73.318-163.437 163.437 0 8.374.645 16.747 1.908 24.985l-52.036 6.17c-5.358.636-9.247 5.014-9.246 10.41 0 5.396 3.89 9.773 9.247 10.408l61.213 7.258c4.112 10.568 9.315 20.699 15.544 30.207l-21.074 31.896c-2.974 4.503-2.141 10.299 1.979 13.783 4.113 3.477 9.968 3.344 13.918-.342l23.647-22.068c30.792 32.308 73.564 50.729 118.338 50.729 33.159 0 65.086-9.876 92.331-28.56 25.608-17.563 45.496-41.755 57.738-70.103h59.017c.068 6.823 5.633 12.353 12.472 12.353h32.069c19.609 0 35.563-15.954 35.563-35.563s-15.956-35.561-35.565-35.561zm-151.576 43.798c2.086-4.366 6.927-15.384 7.376-16.471h99.653v16.471zm-18.032-136.072c0 93.029-49.62 180.021-129.626 227.537-7.957-2.571-15.681-5.807-23.087-9.673 32.867-16.877 60.909-40.691 82.659-69.155.186-.196.364-.4.529-.617 10.237-13.656 19.57-28.355 26.497-43.807 15.104-32.034 23.375-67.525 23.375-104.286 0-1.053-.007-2.102-.02-3.152l18.497-21.876c.778 8.306 1.176 16.678 1.176 25.029zm-101.23 70.112-29.183 34.515h-21.57l36.406-43.057c4.882 2.673 9.677 5.527 14.347 8.542zm12.377 8.554c10.348 7.693 20.086 16.285 29.109 25.713-.042.083-.086.165-.129.248h-50.932zm122.786-193.922 12.577 10.635-93.388 110.451c-4.544-3.167-9.155-6.222-13.847-9.134zm19.329-41.993c3.55-4.199 8.524-6.765 14.004-7.224 5.487-.456 10.811 1.244 15.011 4.795 8.669 7.33 9.759 20.346 2.429 29.016l-19.095 22.584-31.443-26.588zm-285.743 243.521c0-81.864 66.6-148.464 148.463-148.464 16.152 0 31.931 2.564 47.037 7.613l-36.847 43.58c-17.1-9.491-35.075-17.357-53.813-23.527-3.926-1.29-8.16.842-9.453 4.77s.843 8.16 4.77 9.453c34.85 11.473 66.931 29.122 95.429 52.442-1.028 7.271-2.395 14.457-4.099 21.535-37.891-33.439-83.815-55.88-133.413-65.094-4.066-.752-7.973 1.928-8.729 5.993-.755 4.065 1.928 7.973 5.993 8.729 49.308 9.16 94.78 32.147 131.638 66.504-2.18 6.823-4.679 13.523-7.472 20.085-30.838-30.754-69.032-52.642-111.143-63.566-4.004-1.038-8.088 1.365-9.127 5.368-1.038 4.002 1.365 8.088 5.367 9.127 13.316 3.454 26.214 8.079 38.574 13.794l-42.286 50.013h-17.592c-.294 0-.589.018-.882.052l-40.601 4.814c-1.198-7.65-1.814-15.433-1.814-23.221zm43.741 33.329h120.485c-3.441 5.645-7.121 11.141-11.035 16.471h-109.451l-69.456-8.236zm-30.535 27.929 15.828 1.877-8.298 12.559c-2.775-4.673-5.287-9.493-7.53-14.436zm32.693 3.516h13.641l-35.582 33.207zm-4.827 37.717 40.415-37.718h59.728c-20.882 23.981-46.856 43.785-76.749 57.62-8.406-5.766-16.252-12.424-23.394-19.902zm81.949 43.76c35.145-23.479 64.731-54.768 86.17-91.3 25.032-42.657 38.264-91.491 38.264-141.223 0-8.467-.393-16.952-1.152-25.381 31.965 28.037 50.624 68.634 50.624 111.653 0 6.137-.382 12.289-1.129 18.355h-18.666c-2.826-4.806-5.795-9.577-8.866-14.213-.002-.003-.004-.005-.005-.007 3.171-10.548 5.81-21.292 7.86-32.206.763-4.063-1.913-7.976-5.977-8.74-4.056-.761-7.976 1.912-8.74 5.977-3.562 18.969-8.96 37.413-16.022 55.124-3.977 9.979-8.518 19.78-13.551 29.261-19.343 36.438-46.23 68.805-79.292 94.836-1.357.036-2.713.076-4.076.076-8.591 0-17.098-.759-25.442-2.212zm99.259-49.104c3.244 8.757 5.952 17.731 8.1 26.81-15.358 10.142-32.619 17.405-50.997 21.274 15.997-14.603 30.353-30.725 42.897-48.084zm21.119 17.144c-2.895-10.94-6.556-21.701-10.934-32.111 3.632-5.691 7.084-11.494 10.339-17.406h3.42c5.166 11.006 9.587 22.425 13.179 34.033-4.954 5.579-10.308 10.748-16.004 15.484zm27.103-29.627c-2.355-6.724-4.967-13.368-7.83-19.89h19.405c-3.38 6.988-7.251 13.632-11.575 19.89zm131.587-22.511h-29.573v-41.178h29.573c11.353 0 20.589 9.236 20.589 20.589s-9.236 20.589-20.589 20.589z" fill="#191919" data-original="#000000" style=""/></g></g></svg>
