<svg width="22" height="22" viewBox="0 0 22 22" fill="none" xmlns="http://www.w3.org/2000/svg">
<path d="M11 22C4.9344 22 0 17.0656 0 11C0 4.9344 4.9344 0 11 0C17.0656 0 22 4.9344 22 11C22 17.0656 17.0656 22 11 22ZM14.3981 10.3519L9.81475 5.7686C9.636 5.58985 9.40135 5.5 9.16665 5.5C8.932 5.5 8.6973 5.58985 8.51855 5.7686C8.16015 6.127 8.16015 6.70635 8.51855 7.06475L12.4538 11L8.5186 14.9352C8.1602 15.2937 8.1602 15.873 8.5186 16.2314C8.877 16.5898 9.45635 16.5898 9.81475 16.2314L14.3981 11.6481C14.7565 11.2897 14.7565 10.7103 14.3981 10.3519Z" fill="white"/>
</svg>
