<svg width="46" height="46" viewBox="0 0 46 46" fill="none" xmlns="http://www.w3.org/2000/svg">
<path d="M23 0C10.3174 0 0 10.3174 0 23C0 35.6826 10.3174 46 23 46C35.6826 46 46 35.6826 46 23C46 10.3174 35.6826 0 23 0ZM28.1884 31.2283C28.9378 31.9776 28.9378 33.189 28.1884 33.9384C27.8146 34.3121 27.324 34.5 26.8333 34.5C26.3426 34.5 25.8519 34.3121 25.4782 33.9384L15.8949 24.3551C15.1455 23.6057 15.1455 22.3944 15.8949 21.645L25.4783 12.0616C26.2276 11.3122 27.439 11.3122 28.1884 12.0616C28.9378 12.811 28.9378 14.0224 28.1884 14.7718L19.9601 23L28.1884 31.2283Z" fill="#FFFBFB"/>
</svg>
