<svg width="20" height="18" viewBox="0 0 20 18" fill="none" xmlns="http://www.w3.org/2000/svg">
<path d="M13.75 0.28125H6.25C5.83574 0.281669 5.43858 0.429961 5.14566 0.693594C4.85273 0.957226 4.68797 1.31467 4.6875 1.6875V16.3125C4.68797 16.6853 4.85273 17.0428 5.14566 17.3064C5.43858 17.57 5.83574 17.7183 6.25 17.7188H13.75C14.1643 17.7183 14.5614 17.57 14.8543 17.3064C15.1473 17.0428 15.312 16.6853 15.3125 16.3125V1.6875C15.312 1.31467 15.1473 0.957226 14.8543 0.693594C14.5614 0.429961 14.1643 0.281669 13.75 0.28125ZM12.1188 0.84375L11.9313 1.6875H8.06871L7.88121 0.84375H12.1188ZM14.6875 16.3125C14.6872 16.5362 14.5884 16.7507 14.4126 16.9088C14.2368 17.067 13.9986 17.156 13.75 17.1562H6.25C6.00145 17.156 5.76315 17.067 5.5874 16.9088C5.41164 16.7507 5.31278 16.5362 5.3125 16.3125V1.6875C5.31278 1.4638 5.41164 1.24934 5.5874 1.09116C5.76315 0.932977 6.00145 0.844001 6.25 0.84375H7.24379L7.50605 2.02391C7.52022 2.08767 7.5585 2.14504 7.61437 2.18626C7.67024 2.22748 7.74026 2.25 7.8125 2.25H12.1875C12.2597 2.25 12.3298 2.22748 12.3856 2.18626C12.4415 2.14504 12.4798 2.08767 12.4939 2.02391L12.7562 0.84375H13.75C13.9986 0.844001 14.2368 0.932977 14.4126 1.09116C14.5884 1.24934 14.6872 1.4638 14.6875 1.6875V16.3125Z" fill="#010101"/>
<path d="M8.125 16.0312H6.25C6.16712 16.0312 6.08763 16.0609 6.02903 16.1136C5.97042 16.1664 5.9375 16.2379 5.9375 16.3125C5.9375 16.3871 5.97042 16.4586 6.02903 16.5114C6.08763 16.5641 6.16712 16.5938 6.25 16.5938H8.125C8.20788 16.5938 8.28737 16.5641 8.34597 16.5114C8.40458 16.4586 8.4375 16.3871 8.4375 16.3125C8.4375 16.2379 8.40458 16.1664 8.34597 16.1136C8.28737 16.0609 8.20788 16.0312 8.125 16.0312Z" fill="#010101"/>
<path d="M9.375 16.0312H9.0625C8.97962 16.0312 8.90013 16.0609 8.84153 16.1136C8.78292 16.1664 8.75 16.2379 8.75 16.3125C8.75 16.3871 8.78292 16.4586 8.84153 16.5114C8.90013 16.5641 8.97962 16.5938 9.0625 16.5938H9.375C9.45788 16.5938 9.53737 16.5641 9.59597 16.5114C9.65458 16.4586 9.6875 16.3871 9.6875 16.3125C9.6875 16.2379 9.65458 16.1664 9.59597 16.1136C9.53737 16.0609 9.45788 16.0312 9.375 16.0312Z" fill="#010101"/>
</svg>
