<svg width="24" height="24" viewBox="0 0 24 24" fill="none" xmlns="http://www.w3.org/2000/svg">
<g clip-path="url(#clip0)">
<path d="M23.6288 2.38421C23.3355 2.0257 22.8964 1.82812 22.3923 1.82812C22.1181 1.82812 21.8278 1.88599 21.5294 1.99988L1.21372 9.75491C0.135596 10.1664 -0.00960584 10.7838 -0.00026751 11.1154C0.00907082 11.4468 0.189063 12.0551 1.28879 12.4048C1.29538 12.407 1.30197 12.4088 1.30857 12.4108L4.15767 13.226L18.0334 6.13713C18.3791 5.96025 18.8028 6.09758 18.9795 6.44346C19.1182 6.71519 19.0626 7.03453 18.8648 7.24473L18.8654 7.24528L11.1504 15.4427L10.9304 16.3346L13.6853 18.5531L17.5031 21.6272C17.5064 21.6298 17.5097 21.6326 17.5132 21.6351C17.9332 21.961 18.3921 22.1332 18.8401 22.1333C19.7157 22.1333 20.4128 21.4853 20.6159 20.4827L23.9445 4.04644C24.078 3.3869 23.9659 2.79638 23.6288 2.38421Z" fill="black"/>
<path d="M9.83035 14.9269C9.85836 14.8132 9.91476 14.7048 10.0006 14.6135L15.0629 9.23438L5.6691 14.0336L7.80209 20.1337C7.92367 20.4813 8.10458 20.7772 8.32834 21.0088L9.82998 14.9268L9.83035 14.9269Z" fill="black"/>
<path d="M9.63754 21.5732C10.1446 21.569 10.6428 21.3552 11.0793 20.9532L12.6399 19.5162L10.5591 17.8408L9.63754 21.5732Z" fill="black"/>
</g>
<defs>
<clipPath id="clip0">
<rect width="24" height="24" fill="white"/>
</clipPath>
</defs>
</svg>
