<?xml version="1.0"?>
<svg xmlns="http://www.w3.org/2000/svg" xmlns:xlink="http://www.w3.org/1999/xlink" xmlns:svgjs="http://svgjs.com/svgjs" version="1.1" width="512" height="512" x="0" y="0" viewBox="0 0 512 512" style="enable-background:new 0 0 512 512" xml:space="preserve" class=""><g><path xmlns="http://www.w3.org/2000/svg" d="m310.153 106.338a443.507 443.507 0 0 1 -48.388 93.662h16.473c6.25-3.187 33.762-20.164 33.762-72a121.252 121.252 0 0 0 -1.847-21.662z" fill="#191919" data-original="#000000" style="" class=""/><path xmlns="http://www.w3.org/2000/svg" d="m278.23 312h-8.9a433.6 433.6 0 0 0 42.568 77.366q.102-2.646.102-5.366c0-51.728-27.621-68.836-33.77-72z" fill="#191919" data-original="#000000" style="" class=""/><path xmlns="http://www.w3.org/2000/svg" d="m197.944 200c23.9-29.473 55.439-78.183 76.288-148.029a103.99 103.99 0 0 0 -17.487-8.671c-22.156 72.8-55.457 123.833-83.276 156.7z" fill="#191919" data-original="#000000" style="" class=""/><path xmlns="http://www.w3.org/2000/svg" d="m242.189 200c25.146-34.647 45.228-74.435 59.741-118.377a73.635 73.635 0 0 0 -14.184-19.135c-19.3 61.853-46.64 107.292-69.488 137.512z" fill="#191919" data-original="#000000" style="" class=""/><path xmlns="http://www.w3.org/2000/svg" d="m152.145 200c28.258-30.783 65.473-82.968 89.36-161.586a179.912 179.912 0 0 0 -19.05-3.823c-26.343 82.1-66.749 135.487-95.386 165.409z" fill="#191919" data-original="#000000" style="" class=""/><path xmlns="http://www.w3.org/2000/svg" d="m280 248h-192a8 8 0 0 0 0 16h192a8 8 0 0 0 0-16z" fill="#191919" data-original="#000000" style="" class=""/><path xmlns="http://www.w3.org/2000/svg" d="m280 280h-192a8 8 0 0 0 0 16h192a8 8 0 0 0 0-16z" fill="#191919" data-original="#000000" style="" class=""/><path xmlns="http://www.w3.org/2000/svg" d="m280 216h-192a8 8 0 0 0 0 16h192a8 8 0 0 0 0-16z" fill="#191919" data-original="#000000" style="" class=""/><path xmlns="http://www.w3.org/2000/svg" d="m230.913 312a432.5 432.5 0 0 0 69.649 120.915 83.1 83.1 0 0 0 8.142-20.592 450.046 450.046 0 0 1 -56.704-100.323z" fill="#191919" data-original="#000000" style="" class=""/><path xmlns="http://www.w3.org/2000/svg" d="m187.022 422.073q-4.714-7.86-8.951-15.595a285.656 285.656 0 0 0 -59.519 64.8 157.834 157.834 0 0 0 18.073 4.6 302.287 302.287 0 0 1 50.397-53.805z" fill="#191919" data-original="#000000" style="" class=""/><path xmlns="http://www.w3.org/2000/svg" d="m170.522 392.042q-4.123-8.233-7.729-16.225c-35.488 25.915-59.421 56.914-74.22 80.692a93.344 93.344 0 0 0 14.745 8.76 301.773 301.773 0 0 1 67.204-73.227z" fill="#191919" data-original="#000000" style="" class=""/><path xmlns="http://www.w3.org/2000/svg" d="m156.318 360.774q-3.575-8.752-6.558-17.058c-40.745 26.744-67.708 60.646-83.909 86.228a73.95 73.95 0 0 0 10.67 15.674c16.129-25.392 41.886-57.905 79.797-84.844z" fill="#191919" data-original="#000000" style="" class=""/><path xmlns="http://www.w3.org/2000/svg" d="m195.578 435.778a285.128 285.128 0 0 0 -40.915 42.77q10.021 1.053 21.023 1.345a300.029 300.029 0 0 1 29.514-29.878q-5.032-7.143-9.622-14.237z" fill="#191919" data-original="#000000" style="" class=""/><path xmlns="http://www.w3.org/2000/svg" d="m197.394 479.713a239.151 239.151 0 0 0 28.315-2.81q-5.721-6.957-11.011-13.919-8.941 7.932-17.304 16.729z" fill="#191919" data-original="#000000" style="" class=""/><path xmlns="http://www.w3.org/2000/svg" d="m193.245 312a437.214 437.214 0 0 0 83.346 146.5q3.332-2.234 6.343-4.7a75.086 75.086 0 0 0 7.937-7.52 448.536 448.536 0 0 1 -76.992-134.28z" fill="#191919" data-original="#000000" style="" class=""/><path xmlns="http://www.w3.org/2000/svg" d="m156.289 312a433.443 433.443 0 0 0 87.094 161.082 129.049 129.049 0 0 0 18.9-6.7 452.938 452.938 0 0 1 -85.866-154.382z" fill="#191919" data-original="#000000" style="" class=""/><path xmlns="http://www.w3.org/2000/svg" d="m194.74 64.03c-.914-.008-1.823-.03-2.74-.03-33.118 0-60.118 4.925-80.473 14.642 4.652 4.754 9.84 9.679 15.613 14.675 16.815-6.9 37.089-11.161 60.427-12.672q3.668-8.045 7.173-16.615z" fill="#191919" data-original="#000000" style="" class=""/><path xmlns="http://www.w3.org/2000/svg" d="m192 48c2.984 0 5.95.053 8.9.132q2.739-7.479 5.321-15.322-10.6-.8-22.216-.81c-40.756 0-72.137 7.429-93.444 22.085 2.757 3.749 5.989 7.88 9.762 12.305 23.092-12.196 53.877-18.39 91.677-18.39z" fill="#191919" data-original="#000000" style="" class=""/><path xmlns="http://www.w3.org/2000/svg" d="m179.513 97.362a179.431 179.431 0 0 0 -37.861 7.647 280.91 280.91 0 0 0 24.592 16.491c4.484-7.555 8.928-15.6 13.269-24.138z" fill="#191919" data-original="#000000" style="" class=""/><path xmlns="http://www.w3.org/2000/svg" d="m144.453 328.1q-2.677-8.4-4.786-16.1h-1.385c-31.613 18.309-59.269 43.02-82.267 73.5a114.853 114.853 0 0 0 3.015 25.749c18.015-26.149 45.69-57.903 85.423-83.149z" fill="#191919" data-original="#000000" style="" class=""/><path xmlns="http://www.w3.org/2000/svg" d="m148.342 149.046q4.71-6.627 9.468-13.948a293.147 293.147 0 0 1 -37.194-26.325 260.993 260.993 0 0 1 -42.307-44.334 73.477 73.477 0 0 0 -10.934 14.756c13.053 17.453 38.825 46.055 80.967 69.851z" fill="#191919" data-original="#000000" style="" class=""/><path xmlns="http://www.w3.org/2000/svg" d="m108.682 312h-18.92c-4.983 2.54-23.462 13.868-30.762 44.614a291.587 291.587 0 0 1 49.682-44.614z" fill="#191919" data-original="#000000" style="" class=""/><path xmlns="http://www.w3.org/2000/svg" d="m126.058 177.388c4.088-4.693 8.332-9.826 12.668-15.4-38.164-21.895-63.514-47.526-78.446-65.888a104.224 104.224 0 0 0 -3.88 21.548c13.5 16.72 35.962 39.589 69.658 59.74z" fill="#191919" data-original="#000000" style="" class=""/><path xmlns="http://www.w3.org/2000/svg" d="m89.77 200h14.6c3.293-3.095 6.875-6.614 10.683-10.574a284.459 284.459 0 0 1 -58.273-47.065c4.491 40.606 27.45 54.788 32.99 57.639z" fill="#191919" data-original="#000000" style="" class=""/><path xmlns="http://www.w3.org/2000/svg" d="m466.53 263.59a8 8 0 0 1 -10.12-5.06c-.24-.68-6.91-18.53-32.41-18.53-16.25 0-24.41 9.79-33.85 21.12-10.5 12.6-22.4 26.88-46.15 26.88-24.24 0-38.35-8.12-46.28-15.83a23.892 23.892 0 0 0 6.28-16.17c0-.6-.02-1.2-.07-1.79 1.81 3.7 10.65 17.79 40.07 17.79 16.25 0 24.41-9.79 33.85-21.12 10.5-12.6 22.4-26.88 46.15-26.88 37.34 0 47.19 28.27 47.59 29.47a8 8 0 0 1 -5.06 10.12z" fill="#191919" data-original="#000000" style="" class=""/></g></svg>
